name C:\Users\u0101727\Documents\MyRepositories\upper-imu-dc\Results\main_tracking\Case_31\FLX01_linearAccelerations_groundFrame.mot
datacolumns 4
datarows 70
range 5.01000000 5.70000000
endheader 
time	radius_imu_x	radius_imu_y	radius_imu_z	
          5.01000000	          2.26381796	         10.92872432	         -6.59664258	
          5.02000000	          2.42813510	         11.09015837	         -6.92903954	
          5.03000000	          2.41014915	         11.32591710	         -7.17492594	
          5.04000000	          2.67456614	         11.61333966	         -6.91598862	
          5.05000000	          2.95270724	         11.77099887	         -6.95785982	
          5.06000000	          3.26970262	         11.51921533	         -7.34337703	
          5.07000000	          3.41022227	         11.60614984	         -7.44759275	
          5.08000000	          3.47671530	         11.63451266	         -7.72548790	
          5.09000000	          3.43262516	         11.62336645	         -8.09144075	
          5.10000000	          3.28892684	         11.55099943	         -8.49864884	
          5.11000000	          3.04608609	         11.41582131	         -8.87543831	
          5.12000000	          2.70634283	         11.22266200	         -9.16851532	
          5.13000000	          2.26976584	         10.98274996	         -9.35800514	
          5.14000000	          1.73701875	         10.71334888	         -9.45935503	
          5.15000000	          1.11229313	         10.43648811	         -9.50602907	
          5.16000000	          0.40538261	         10.17539649	         -9.52543450	
          5.17000000	         -0.36731382	          9.94999409	         -9.52218645	
          5.18000000	         -1.18344134	          9.77424337	         -9.47375394	
          5.19000000	         -2.01846212	          9.65697884	         -9.33494786	
          5.20000000	         -2.85064392	          9.60524499	         -9.05051057	
          5.21000000	         -3.66319775	          9.62743474	         -8.57350467	
          5.22000000	         -4.44301004	          9.73357587	         -7.87952625	
          5.23000000	         -5.17859684	          9.93190345	         -6.96910452	
          5.24000000	         -5.85929499	         10.22302696	         -5.86138188	
          5.25000000	         -6.47648685	         10.59425425	         -4.58547793	
          5.26000000	         -7.02686280	         11.01724199	         -3.16976493	
          5.27000000	         -7.51646675	         11.45007286	         -1.63601814	
          5.28000000	         -7.96284491	         11.84371805	          0.00388909	
          5.29000000	         -8.39340586	         12.14973399	          1.74214482	
          5.30000000	         -8.84097359	         12.32731624	          3.56431764	
          5.31000000	         -9.33811709	         12.34859189	          5.43834888	
          5.32000000	         -9.90967806	         12.20077163	          7.31068666	
          5.33000000	        -10.56917204	         11.89131417	          9.10574238	
          5.34000000	        -11.30660625	         11.44009143	         10.73062667	
          5.35000000	        -12.10005587	         10.88140168	         12.07241129	
          5.36000000	        -12.81247877	         10.34071747	         13.04383186	
          5.37000000	        -12.79385184	          9.64463601	         14.28432487	
          5.38000000	        -14.00692186	          9.17453869	         14.09956928	
          5.39000000	        -13.47079929	          8.84824328	         14.59539241	
          5.40000000	        -13.55041513	          8.98573191	         14.26621409	
          5.41000000	        -12.71953262	          9.38247678	         13.86066720	
          5.42000000	        -11.42521864	          9.62784851	         12.52888315	
          5.43000000	         -9.59101516	          9.68145336	         10.68220822	
          5.44000000	         -7.81848653	          9.79848906	          7.95966899	
          5.45000000	         -5.95207964	          9.25118534	          5.47330262	
          5.46000000	         -4.98992041	         10.78259156	          2.64477205	
          5.47000000	         -3.14383191	         10.95221931	          2.07524031	
          5.48000000	         -1.73550880	         11.29035853	          0.55325576	
          5.49000000	         -0.50604250	         11.43050958	         -0.71934285	
          5.50000000	          0.34308106	         11.37194694	         -1.93855029	
          5.51000000	          0.82110425	         10.46014100	         -3.05284294	
          5.52000000	          0.74547463	         10.52988652	         -4.14562445	
          5.53000000	          0.68801533	          9.66706126	         -4.24447713	
          5.54000000	          0.69862166	          9.08775532	         -4.61776593	
          5.55000000	          0.27683717	          9.28081611	         -3.98675562	
          5.56000000	         -0.32677645	          9.59726207	         -2.89544305	
          5.57000000	         -0.53557358	          9.84120701	         -2.45081286	
          5.58000000	         -0.73614991	         10.05773783	         -2.10275634	
          5.59000000	         -0.93364673	         10.24684119	         -1.83293452	
          5.60000000	         -1.12205780	         10.41930811	         -1.61145241	
          5.61000000	         -1.27963630	         10.57466931	         -1.42170191	
          5.62000000	         -1.37929620	         10.71317327	         -1.25694915	
          5.63000000	         -1.39258591	         10.83592160	         -1.11375011	
          5.64000000	         -1.29414802	         10.94733476	         -0.98596359	
          5.65000000	         -1.06444630	         11.05607608	         -0.86159451	
          5.66000000	         -0.69035692	         11.17599697	         -0.72660029	
          5.67000000	         -0.16674345	         11.32507796	         -0.57407278	
          5.68000000	          0.49811668	         11.51790039	         -0.42124084	
          5.69000000	          1.26470681	         11.75445979	         -0.31573046	
          5.70000000	          2.04601108	         11.96104638	         -0.36245941	
